<svg width="123" height="143" viewBox="0 0 123 143" fill="none" xmlns="http://www.w3.org/2000/svg">
<g filter="url(#filter0_d_9_225)">
<path d="M11.4148 96.2557C10.0682 96.2557 8.90909 95.983 7.9375 95.4375C6.97159 94.8864 6.22727 94.108 5.70455 93.1023C5.18182 92.0909 4.92045 90.8949 4.92045 89.5142C4.92045 88.1676 5.18182 86.9858 5.70455 85.9688C6.22727 84.9517 6.96307 84.1591 7.91193 83.5909C8.86648 83.0227 9.9858 82.7386 11.2699 82.7386C12.1335 82.7386 12.9375 82.8778 13.6818 83.1562C14.4318 83.429 15.0852 83.8409 15.642 84.392C16.2045 84.9432 16.642 85.6364 16.9545 86.4716C17.267 87.3011 17.4233 88.2727 17.4233 89.3864V90.3835H6.36932V88.1335H14.0057C14.0057 87.6108 13.892 87.1477 13.6648 86.7443C13.4375 86.3409 13.1222 86.0256 12.7188 85.7983C12.321 85.5653 11.858 85.4489 11.3295 85.4489C10.7784 85.4489 10.2898 85.5767 9.86364 85.8324C9.44318 86.0824 9.11364 86.4205 8.875 86.8466C8.63636 87.267 8.5142 87.7358 8.50852 88.2528V90.392C8.50852 91.0398 8.62784 91.5994 8.86648 92.071C9.1108 92.5426 9.45455 92.9062 9.89773 93.1619C10.3409 93.4176 10.8665 93.5455 11.4744 93.5455C11.8778 93.5455 12.2472 93.4886 12.5824 93.375C12.9176 93.2614 13.2045 93.0909 13.4432 92.8636C13.6818 92.6364 13.8636 92.358 13.9886 92.0284L17.3466 92.25C17.1761 93.0568 16.8267 93.7614 16.2983 94.3636C15.7756 94.9602 15.0994 95.4261 14.2699 95.7614C13.446 96.0909 12.4943 96.2557 11.4148 96.2557ZM22.5923 82.9091L24.9957 87.4858L27.4588 82.9091H31.1832L27.3906 89.4545L31.2855 96H27.5781L24.9957 91.4744L22.456 96H18.706L22.5923 89.4545L18.8423 82.9091H22.5923ZM38.7855 96.2557C37.4446 96.2557 36.2912 95.9716 35.3253 95.4034C34.3651 94.8295 33.6264 94.0341 33.1094 93.017C32.598 92 32.3423 90.8295 32.3423 89.5057C32.3423 88.1648 32.6009 86.9886 33.1179 85.9773C33.6406 84.9602 34.3821 84.1676 35.3423 83.5994C36.3026 83.0256 37.4446 82.7386 38.7685 82.7386C39.9105 82.7386 40.9105 82.946 41.7685 83.3608C42.6264 83.7756 43.3054 84.358 43.8054 85.108C44.3054 85.858 44.581 86.7386 44.6321 87.75H41.206C41.1094 87.0966 40.8537 86.571 40.4389 86.1733C40.0298 85.7699 39.4929 85.5682 38.8281 85.5682C38.2656 85.5682 37.7741 85.7216 37.3537 86.0284C36.9389 86.3295 36.6151 86.7699 36.3821 87.3494C36.1491 87.929 36.0327 88.6307 36.0327 89.4545C36.0327 90.2898 36.1463 91 36.3736 91.5852C36.6065 92.1705 36.9332 92.6165 37.3537 92.9233C37.7741 93.2301 38.2656 93.3835 38.8281 93.3835C39.2429 93.3835 39.6151 93.2983 39.9446 93.1278C40.2798 92.9574 40.5554 92.7102 40.7713 92.3864C40.9929 92.0568 41.1378 91.6619 41.206 91.2017H44.6321C44.5753 92.2017 44.3026 93.0824 43.8139 93.8438C43.331 94.5994 42.6634 95.1903 41.8111 95.6165C40.9588 96.0426 39.9503 96.2557 38.7855 96.2557ZM50.5874 88.4318V96H46.9567V78.5455H50.4851V85.2188H50.6385C50.9339 84.446 51.4112 83.8409 52.0703 83.4034C52.7294 82.9602 53.5561 82.7386 54.5504 82.7386C55.4595 82.7386 56.2521 82.9375 56.9283 83.3352C57.6101 83.7273 58.1385 84.2926 58.5135 85.0312C58.8942 85.7642 59.0817 86.642 59.076 87.6648V96H55.4453V88.3125C55.451 87.5057 55.2464 86.8778 54.8317 86.429C54.4226 85.9801 53.8487 85.7557 53.1101 85.7557C52.6158 85.7557 52.1783 85.8608 51.7976 86.071C51.4226 86.2812 51.1271 86.5881 50.9112 86.9915C50.701 87.3892 50.593 87.8693 50.5874 88.4318ZM65.6662 96.2472C64.831 96.2472 64.0866 96.1023 63.4332 95.8125C62.7798 95.517 62.2628 95.0824 61.8821 94.5085C61.5071 93.929 61.3196 93.2074 61.3196 92.3438C61.3196 91.6165 61.4531 91.0057 61.7202 90.5114C61.9872 90.017 62.3509 89.6193 62.8111 89.3182C63.2713 89.017 63.794 88.7898 64.3793 88.6364C64.9702 88.483 65.5895 88.375 66.2372 88.3125C66.9986 88.233 67.6122 88.1591 68.0781 88.0909C68.544 88.017 68.8821 87.9091 69.0923 87.767C69.3026 87.625 69.4077 87.4148 69.4077 87.1364V87.0852C69.4077 86.5455 69.2372 86.1278 68.8963 85.8324C68.5611 85.5369 68.0838 85.3892 67.4645 85.3892C66.8111 85.3892 66.2912 85.5341 65.9048 85.8239C65.5185 86.108 65.2628 86.4659 65.1378 86.8977L61.7798 86.625C61.9503 85.8295 62.2855 85.142 62.7855 84.5625C63.2855 83.9773 63.9304 83.5284 64.7202 83.2159C65.5156 82.8977 66.4361 82.7386 67.4815 82.7386C68.2088 82.7386 68.9048 82.8239 69.5696 82.9943C70.2401 83.1648 70.8338 83.429 71.3509 83.7869C71.8736 84.1449 72.2855 84.6051 72.5866 85.1676C72.8878 85.7244 73.0384 86.392 73.0384 87.1705V96H69.5952V94.1847H69.4929C69.2827 94.5938 69.0014 94.9545 68.6491 95.267C68.2969 95.5739 67.8736 95.8153 67.3793 95.9915C66.8849 96.1619 66.3139 96.2472 65.6662 96.2472ZM66.706 93.7415C67.2401 93.7415 67.7116 93.6364 68.1207 93.4261C68.5298 93.2102 68.8509 92.9205 69.0838 92.5568C69.3168 92.1932 69.4332 91.7812 69.4332 91.321V89.9318C69.3196 90.0057 69.1634 90.0739 68.9645 90.1364C68.7713 90.1932 68.5526 90.2472 68.3082 90.2983C68.0639 90.3437 67.8196 90.3864 67.5753 90.4261C67.331 90.4602 67.1094 90.4915 66.9105 90.5199C66.4844 90.5824 66.1122 90.6818 65.794 90.8182C65.4759 90.9545 65.2287 91.1392 65.0526 91.3722C64.8764 91.5994 64.7884 91.8835 64.7884 92.2244C64.7884 92.7188 64.9673 93.0966 65.3253 93.358C65.6889 93.6136 66.1491 93.7415 66.706 93.7415ZM79.4858 88.4318V96H75.8551V82.9091H79.3153V85.2188H79.4688C79.7585 84.4574 80.2443 83.8551 80.9261 83.4119C81.608 82.9631 82.4347 82.7386 83.4062 82.7386C84.3153 82.7386 85.108 82.9375 85.7841 83.3352C86.4602 83.733 86.9858 84.3011 87.3608 85.0398C87.7358 85.7727 87.9233 86.6477 87.9233 87.6648V96H84.2926V88.3125C84.2983 87.5114 84.0938 86.8864 83.679 86.4375C83.2642 85.983 82.6932 85.7557 81.9659 85.7557C81.4773 85.7557 81.0455 85.8608 80.6705 86.071C80.3011 86.2812 80.0114 86.5881 79.8011 86.9915C79.5966 87.3892 79.4915 87.8693 79.4858 88.4318ZM96.6825 101.182C95.5064 101.182 94.4979 101.02 93.657 100.696C92.8217 100.378 92.157 99.9432 91.6626 99.392C91.1683 98.8409 90.8473 98.2216 90.6996 97.5341L94.0575 97.0824C94.1598 97.3438 94.3217 97.5881 94.5433 97.8153C94.7649 98.0426 95.0575 98.2244 95.4212 98.3608C95.7905 98.5028 96.2393 98.5739 96.7678 98.5739C97.5575 98.5739 98.2081 98.3807 98.7195 97.9943C99.2365 97.6136 99.495 96.9744 99.495 96.0767V93.6818H99.3416C99.1825 94.0455 98.9439 94.3892 98.6257 94.7131C98.3075 95.0369 97.8984 95.3011 97.3984 95.5057C96.8984 95.7102 96.3018 95.8125 95.6087 95.8125C94.6257 95.8125 93.7308 95.5852 92.924 95.1307C92.1229 94.6705 91.4837 93.9687 91.0064 93.0256C90.5348 92.0767 90.299 90.8778 90.299 89.429C90.299 87.946 90.5405 86.7074 91.0234 85.7131C91.5064 84.7187 92.1484 83.9744 92.9496 83.4801C93.7564 82.9858 94.6399 82.7386 95.6001 82.7386C96.3331 82.7386 96.9467 82.8636 97.4411 83.1136C97.9354 83.358 98.3331 83.6648 98.6342 84.0341C98.9411 84.3977 99.1768 84.7557 99.3416 85.108H99.478V82.9091H103.083V96.1278C103.083 97.2415 102.81 98.1733 102.265 98.9233C101.719 99.6733 100.964 100.236 99.9979 100.611C99.0376 100.991 97.9325 101.182 96.6825 101.182ZM96.7592 93.0852C97.3445 93.0852 97.8388 92.9403 98.2422 92.6506C98.6513 92.3551 98.9638 91.9347 99.1797 91.3892C99.4013 90.8381 99.5121 90.179 99.5121 89.4119C99.5121 88.6449 99.4041 87.9801 99.1882 87.4176C98.9723 86.8494 98.6598 86.4091 98.2507 86.0966C97.8416 85.7841 97.3445 85.6278 96.7592 85.6278C96.1626 85.6278 95.6598 85.7898 95.2507 86.1136C94.8416 86.4318 94.532 86.875 94.3217 87.4432C94.1115 88.0114 94.0064 88.6676 94.0064 89.4119C94.0064 90.1676 94.1115 90.821 94.3217 91.3722C94.5376 91.9176 94.8473 92.3409 95.2507 92.642C95.6598 92.9375 96.1626 93.0852 96.7592 93.0852ZM111.938 96.2557C110.592 96.2557 109.433 95.983 108.461 95.4375C107.495 94.8864 106.751 94.108 106.228 93.1023C105.705 92.0909 105.444 90.8949 105.444 89.5142C105.444 88.1676 105.705 86.9858 106.228 85.9688C106.751 84.9517 107.487 84.1591 108.435 83.5909C109.39 83.0227 110.509 82.7386 111.793 82.7386C112.657 82.7386 113.461 82.8778 114.205 83.1562C114.955 83.429 115.609 83.8409 116.165 84.392C116.728 84.9432 117.165 85.6364 117.478 86.4716C117.79 87.3011 117.947 88.2727 117.947 89.3864V90.3835H106.893V88.1335H114.529C114.529 87.6108 114.415 87.1477 114.188 86.7443C113.961 86.3409 113.646 86.0256 113.242 85.7983C112.844 85.5653 112.381 85.4489 111.853 85.4489C111.302 85.4489 110.813 85.5767 110.387 85.8324C109.967 86.0824 109.637 86.4205 109.398 86.8466C109.16 87.267 109.038 87.7358 109.032 88.2528V90.392C109.032 91.0398 109.151 91.5994 109.39 92.071C109.634 92.5426 109.978 92.9062 110.421 93.1619C110.864 93.4176 111.39 93.5455 111.998 93.5455C112.401 93.5455 112.771 93.4886 113.106 93.375C113.441 93.2614 113.728 93.0909 113.967 92.8636C114.205 92.6364 114.387 92.358 114.512 92.0284L117.87 92.25C117.7 93.0568 117.35 93.7614 116.822 94.3636C116.299 94.9602 115.623 95.4261 114.793 95.7614C113.969 96.0909 113.018 96.2557 111.938 96.2557Z" fill="#FFFDFD"/>
<path d="M4.03409 79.9999V45.0908H11.2955V58.2158H11.517C11.8352 57.5113 12.2955 56.7954 12.8977 56.0681C13.5114 55.3295 14.3068 54.7158 15.2841 54.2272C16.2727 53.7272 17.5 53.4772 18.9659 53.4772C20.875 53.4772 22.6364 53.9772 24.25 54.9772C25.8636 55.9658 27.1534 57.4602 28.1193 59.4602C29.0852 61.4488 29.5682 63.9431 29.5682 66.9431C29.5682 69.8636 29.0966 72.3295 28.1534 74.3408C27.2216 76.3408 25.9489 77.8579 24.3352 78.892C22.733 79.9147 20.9375 80.4261 18.9489 80.4261C17.5398 80.4261 16.3409 80.1931 15.3523 79.7272C14.375 79.2613 13.5739 78.6761 12.9489 77.9715C12.3239 77.2556 11.8466 76.534 11.517 75.8068H11.1932V79.9999H4.03409ZM11.142 66.909C11.142 68.4658 11.358 69.8238 11.7898 70.9829C12.2216 72.142 12.8466 73.0454 13.6648 73.6931C14.483 74.3295 15.4773 74.6477 16.6477 74.6477C17.8295 74.6477 18.8295 74.3238 19.6477 73.6761C20.4659 73.017 21.0852 72.1079 21.5057 70.9488C21.9375 69.7783 22.1534 68.4318 22.1534 66.909C22.1534 65.3977 21.9432 64.0681 21.5227 62.9204C21.1023 61.7727 20.483 60.8749 19.6648 60.2272C18.8466 59.5795 17.8409 59.2556 16.6477 59.2556C15.4659 59.2556 14.4659 59.5681 13.6477 60.1931C12.8409 60.8181 12.2216 61.7045 11.7898 62.8522C11.358 63.9999 11.142 65.3522 11.142 66.909ZM46.2429 80.5113C43.5952 80.5113 41.3054 79.9488 39.3736 78.8238C37.4531 77.6874 35.9702 76.1079 34.9247 74.0852C33.8793 72.0511 33.3565 69.6931 33.3565 67.0113C33.3565 64.3068 33.8793 61.9431 34.9247 59.9204C35.9702 57.8863 37.4531 56.3068 39.3736 55.1818C41.3054 54.0454 43.5952 53.4772 46.2429 53.4772C48.8906 53.4772 51.1747 54.0454 53.0952 55.1818C55.027 56.3068 56.5156 57.8863 57.5611 59.9204C58.6065 61.9431 59.1293 64.3068 59.1293 67.0113C59.1293 69.6931 58.6065 72.0511 57.5611 74.0852C56.5156 76.1079 55.027 77.6874 53.0952 78.8238C51.1747 79.9488 48.8906 80.5113 46.2429 80.5113ZM46.277 74.8863C47.4815 74.8863 48.4872 74.5454 49.294 73.8636C50.1009 73.1704 50.7088 72.2272 51.1179 71.034C51.5384 69.8408 51.7486 68.4829 51.7486 66.9602C51.7486 65.4374 51.5384 64.0795 51.1179 62.8863C50.7088 61.6931 50.1009 60.7499 49.294 60.0568C48.4872 59.3636 47.4815 59.017 46.277 59.017C45.0611 59.017 44.0384 59.3636 43.2088 60.0568C42.3906 60.7499 41.7713 61.6931 41.3509 62.8863C40.9418 64.0795 40.7372 65.4374 40.7372 66.9602C40.7372 68.4829 40.9418 69.8408 41.3509 71.034C41.7713 72.2272 42.3906 73.1704 43.2088 73.8636C44.0384 74.5454 45.0611 74.8863 46.277 74.8863ZM75.6804 80.5113C73.0327 80.5113 70.7429 79.9488 68.8111 78.8238C66.8906 77.6874 65.4077 76.1079 64.3622 74.0852C63.3168 72.0511 62.794 69.6931 62.794 67.0113C62.794 64.3068 63.3168 61.9431 64.3622 59.9204C65.4077 57.8863 66.8906 56.3068 68.8111 55.1818C70.7429 54.0454 73.0327 53.4772 75.6804 53.4772C78.3281 53.4772 80.6122 54.0454 82.5327 55.1818C84.4645 56.3068 85.9531 57.8863 86.9986 59.9204C88.044 61.9431 88.5668 64.3068 88.5668 67.0113C88.5668 69.6931 88.044 72.0511 86.9986 74.0852C85.9531 76.1079 84.4645 77.6874 82.5327 78.8238C80.6122 79.9488 78.3281 80.5113 75.6804 80.5113ZM75.7145 74.8863C76.919 74.8863 77.9247 74.5454 78.7315 73.8636C79.5384 73.1704 80.1463 72.2272 80.5554 71.034C80.9759 69.8408 81.1861 68.4829 81.1861 66.9602C81.1861 65.4374 80.9759 64.0795 80.5554 62.8863C80.1463 61.6931 79.5384 60.7499 78.7315 60.0568C77.9247 59.3636 76.919 59.017 75.7145 59.017C74.4986 59.017 73.4759 59.3636 72.6463 60.0568C71.8281 60.7499 71.2088 61.6931 70.7884 62.8863C70.3793 64.0795 70.1747 65.4374 70.1747 66.9602C70.1747 68.4829 70.3793 69.8408 70.7884 71.034C71.2088 72.2272 71.8281 73.1704 72.6463 73.8636C73.4759 74.5454 74.4986 74.8863 75.7145 74.8863ZM99.8679 72.4658L99.8849 63.7556H100.942L109.328 53.8181H117.663L106.396 66.9772H104.675L99.8679 72.4658ZM93.2884 79.9999V45.0908H100.55V79.9999H93.2884ZM109.652 79.9999L101.947 68.5965L106.788 63.4658L118.158 79.9999H109.652Z" fill="#FFFDFD"/>
<path d="M17.2178 98.8873C17.1601 98.0471 17.4229 97.1906 17.9485 96.5064C18.4741 95.8222 19.2194 95.3663 20.0205 95.2389C20.8215 95.1115 21.6127 95.3232 22.22 95.8273C22.8272 96.3313 23.2008 97.0866 23.2586 97.9268C23.7321 104.82 26.1437 111.248 30.1882 116.398C34.2327 121.549 39.7285 125.191 45.9807 126.863C52.2329 128.535 58.9606 128.163 65.313 125.794C71.6654 123.424 77.3572 119.164 81.6687 113.551L88.0947 105.186L71.2239 107.868C70.4228 107.996 69.6317 107.784 69.0244 107.28C68.4171 106.776 68.0435 106.021 67.9858 105.181C67.9281 104.34 68.1909 103.484 68.7165 102.8C69.2421 102.115 69.9874 101.659 70.7885 101.532L94.9514 97.6902C94.974 97.6867 94.996 97.6863 95.0185 97.6831C95.0951 97.6727 95.1718 97.6632 95.2485 97.6588C95.3015 97.6559 95.3535 97.6578 95.4059 97.6577C95.452 97.6576 95.4981 97.6557 95.5439 97.6578C95.5998 97.6605 95.6544 97.6676 95.7094 97.6735C95.7517 97.6781 95.7942 97.681 95.8362 97.6874C95.8884 97.6955 95.9393 97.7076 95.9907 97.7188C96.0349 97.7281 96.0794 97.7361 96.1231 97.7477C96.1696 97.7603 96.2146 97.7764 96.2602 97.7912C96.3073 97.8064 96.3546 97.8204 96.401 97.8383C96.443 97.8546 96.4831 97.8745 96.5242 97.8928C96.5716 97.9139 96.6195 97.9337 96.6659 97.9576C96.7083 97.9796 96.7484 98.0053 96.7894 98.0294C96.8319 98.0544 96.8751 98.0774 96.9166 98.1048C96.9745 98.1433 97.0293 98.1862 97.0843 98.2291C97.1062 98.2461 97.1294 98.2606 97.151 98.2785C97.1739 98.2975 97.1936 98.3188 97.2157 98.3386C97.2666 98.3836 97.3178 98.4285 97.3654 98.4774C97.4028 98.5158 97.4362 98.5571 97.4711 98.5974C97.5004 98.6309 97.5309 98.6632 97.5586 98.6983C97.5941 98.7433 97.6256 98.7908 97.6582 98.8379C97.6818 98.8718 97.7067 98.9046 97.729 98.94C97.7586 98.9869 97.7845 99.0359 97.8114 99.0844C97.8328 99.1233 97.8555 99.1611 97.8755 99.2009C97.8986 99.2481 97.9183 99.2965 97.939 99.3449C97.9581 99.3891 97.9785 99.4324 97.9956 99.478C98.0139 99.5267 98.0283 99.5768 98.0441 99.6265C98.059 99.6734 98.0754 99.7192 98.0882 99.7672C98.1036 99.8256 98.1148 99.885 98.127 99.9442C98.1354 99.9853 98.1459 100.025 98.1528 100.067C98.17 100.17 98.1825 100.275 98.1896 100.38L99.9312 125.724C99.989 126.564 99.7261 127.42 99.2005 128.105C98.6749 128.789 97.9296 129.245 97.1286 129.372C96.3275 129.499 95.5363 129.288 94.9291 128.784C94.3218 128.28 93.9482 127.524 93.8905 126.684L92.6744 108.988L86.2483 117.353C81.1529 123.986 74.4261 129.021 66.9187 131.821C59.4113 134.621 51.4604 135.061 44.0715 133.085C36.6826 131.108 30.1875 126.804 25.4076 120.717C20.6277 114.63 17.7776 107.033 17.2178 98.8873V98.8873Z" fill="#FFFDFD"/>
<path d="M98.0016 43.1019C98.1349 43.9496 97.9515 44.8462 97.4918 45.5944C97.0321 46.3426 96.3338 46.8812 95.5505 47.0917C94.7672 47.3021 93.963 47.1672 93.3148 46.7166C92.6667 46.266 92.2277 45.5367 92.0945 44.689C91.0014 37.7352 88.0274 31.4496 83.5486 26.6269C79.0698 21.8042 73.2872 18.6611 66.9323 17.595C60.5773 16.5289 53.9353 17.5877 47.8463 20.6376C41.7573 23.6875 36.4947 28.5914 32.724 34.7292L27.104 43.8771L43.6017 39.4447C44.385 39.2343 45.1892 39.3692 45.8374 39.8198C46.4855 40.2704 46.9245 40.9997 47.0577 41.8474C47.191 42.6951 47.0076 43.5917 46.5479 44.3399C46.0883 45.0881 45.3899 45.6267 44.6066 45.8372L20.978 52.1853C20.956 52.1913 20.9342 52.1939 20.9121 52.1994C20.8371 52.2177 20.7618 52.2351 20.686 52.2473C20.6337 52.2557 20.582 52.259 20.53 52.2644C20.4843 52.2692 20.4387 52.2757 20.3931 52.2782C20.3374 52.2812 20.2825 52.2795 20.2274 52.279C20.185 52.2786 20.1427 52.28 20.1004 52.2778C20.0478 52.2748 19.9962 52.2677 19.9443 52.2616C19.8995 52.2565 19.8547 52.2529 19.8102 52.2455C19.7629 52.2375 19.7168 52.2257 19.6703 52.2152C19.6222 52.2045 19.5739 52.1951 19.5263 52.1817C19.4832 52.1693 19.4415 52.1532 19.3992 52.1388C19.3502 52.1221 19.3008 52.1069 19.2527 52.0873C19.2086 52.0692 19.1665 52.0472 19.1236 52.0268C19.0792 52.0058 19.0342 51.9868 18.9906 51.9631C18.9297 51.9299 18.8714 51.8919 18.813 51.8538C18.7896 51.8388 18.7653 51.8264 18.7423 51.8104C18.7179 51.7934 18.6964 51.7737 18.6726 51.7559C18.6181 51.7153 18.5632 51.6749 18.5116 51.63C18.471 51.5948 18.4341 51.5563 18.3958 51.5188C18.3638 51.4878 18.3306 51.4581 18.2999 51.4252C18.2606 51.3831 18.2251 51.338 18.1885 51.2935C18.162 51.2614 18.1343 51.2306 18.1089 51.197C18.0753 51.1523 18.0452 51.1051 18.0142 51.0585C17.9894 51.0213 17.9634 50.9852 17.9401 50.9467C17.9128 50.9012 17.8889 50.8539 17.864 50.8069C17.841 50.7639 17.8169 50.722 17.7958 50.6774C17.7733 50.6298 17.7544 50.5804 17.7342 50.5315C17.7153 50.4854 17.6948 50.4404 17.6778 50.393C17.6572 50.3353 17.6407 50.2761 17.6233 50.2171C17.6112 50.1762 17.5972 50.1369 17.5865 50.095C17.5601 49.9917 17.5383 49.8868 17.5217 49.7806L13.5024 24.2128C13.3692 23.3651 13.5526 22.4685 14.0122 21.7203C14.4719 20.9721 15.1702 20.4335 15.9536 20.223C16.7369 20.0126 17.5411 20.1475 18.1892 20.5981C18.8374 21.0487 19.2763 21.778 19.4096 22.6257L22.2161 40.4789L27.8362 31.331C32.2925 24.0773 38.512 18.2819 45.7081 14.6776C52.9043 11.0733 60.7539 9.82199 68.2643 11.0819C75.7747 12.3419 82.6086 16.0565 87.9018 21.756C93.195 27.4555 96.7097 34.8839 98.0016 43.1019V43.1019Z" fill="#FFFDFD"/>
</g>
<defs>
<filter id="filter0_d_9_225" x="0.0341797" y="10.6053" width="122.124" height="131.696" filterUnits="userSpaceOnUse" color-interpolation-filters="sRGB">
<feFlood flood-opacity="0" result="BackgroundImageFix"/>
<feColorMatrix in="SourceAlpha" type="matrix" values="0 0 0 0 0 0 0 0 0 0 0 0 0 0 0 0 0 0 127 0" result="hardAlpha"/>
<feOffset dy="4"/>
<feGaussianBlur stdDeviation="2"/>
<feComposite in2="hardAlpha" operator="out"/>
<feColorMatrix type="matrix" values="0 0 0 0 0 0 0 0 0 0 0 0 0 0 0 0 0 0 0.25 0"/>
<feBlend mode="normal" in2="BackgroundImageFix" result="effect1_dropShadow_9_225"/>
<feBlend mode="normal" in="SourceGraphic" in2="effect1_dropShadow_9_225" result="shape"/>
</filter>
</defs>
</svg>
