<svg width="425" height="176" viewBox="0 0 425 176" fill="none" xmlns="http://www.w3.org/2000/svg">
<g filter="url(#filter0_d_2_48)">
<path d="M4.03409 102V67.0909H18.0114C20.5795 67.0909 22.7216 67.4716 24.4375 68.233C26.1534 68.9943 27.4432 70.0511 28.3068 71.4034C29.1705 72.7443 29.6023 74.2898 29.6023 76.0398C29.6023 77.4034 29.3295 78.6023 28.7841 79.6364C28.2386 80.6591 27.4886 81.5 26.5341 82.1591C25.5909 82.8068 24.5114 83.267 23.2955 83.5398V83.8807C24.625 83.9375 25.8693 84.3125 27.0284 85.0057C28.1989 85.6989 29.1477 86.6705 29.875 87.9205C30.6023 89.1591 30.9659 90.6364 30.9659 92.3523C30.9659 94.2045 30.5057 95.858 29.5852 97.3125C28.6761 98.7557 27.3295 99.8977 25.5455 100.739C23.7614 101.58 21.5625 102 18.9489 102H4.03409ZM11.4148 95.9659H17.4318C19.4886 95.9659 20.9886 95.5739 21.9318 94.7898C22.875 93.9943 23.3466 92.9375 23.3466 91.6193C23.3466 90.6534 23.1136 89.8011 22.6477 89.0625C22.1818 88.3239 21.517 87.7443 20.6534 87.3239C19.8011 86.9034 18.7841 86.6932 17.6023 86.6932H11.4148V95.9659ZM11.4148 81.6989H16.8864C17.8977 81.6989 18.7955 81.5227 19.5795 81.1705C20.375 80.8068 21 80.2955 21.4545 79.6364C21.9205 78.9773 22.1534 78.1875 22.1534 77.267C22.1534 76.0057 21.7045 74.9886 20.8068 74.2159C19.9205 73.4432 18.6591 73.0568 17.0227 73.0568H11.4148V81.6989ZM67.848 84.5455C67.848 88.3523 67.1264 91.5909 65.6832 94.2614C64.2514 96.9318 62.2969 98.9716 59.8196 100.381C57.3537 101.778 54.581 102.477 51.5014 102.477C48.3991 102.477 45.6151 101.773 43.1491 100.364C40.6832 98.9545 38.7344 96.9148 37.3026 94.2443C35.8707 91.5739 35.1548 88.3409 35.1548 84.5455C35.1548 80.7386 35.8707 77.5 37.3026 74.8295C38.7344 72.1591 40.6832 70.125 43.1491 68.7273C45.6151 67.3182 48.3991 66.6136 51.5014 66.6136C54.581 66.6136 57.3537 67.3182 59.8196 68.7273C62.2969 70.125 64.2514 72.1591 65.6832 74.8295C67.1264 77.5 67.848 80.7386 67.848 84.5455ZM60.3651 84.5455C60.3651 82.0795 59.9957 80 59.2571 78.3068C58.5298 76.6136 57.5014 75.3295 56.1719 74.4545C54.8423 73.5795 53.2855 73.142 51.5014 73.142C49.7173 73.142 48.1605 73.5795 46.831 74.4545C45.5014 75.3295 44.4673 76.6136 43.7287 78.3068C43.0014 80 42.6378 82.0795 42.6378 84.5455C42.6378 87.0114 43.0014 89.0909 43.7287 90.7841C44.4673 92.4773 45.5014 93.7614 46.831 94.6364C48.1605 95.5114 49.7173 95.9489 51.5014 95.9489C53.2855 95.9489 54.8423 95.5114 56.1719 94.6364C57.5014 93.7614 58.5298 92.4773 59.2571 90.7841C59.9957 89.0909 60.3651 87.0114 60.3651 84.5455ZM105.395 84.5455C105.395 88.3523 104.673 91.5909 103.23 94.2614C101.798 96.9318 99.8438 98.9716 97.3665 100.381C94.9006 101.778 92.1278 102.477 89.0483 102.477C85.946 102.477 83.1619 101.773 80.696 100.364C78.2301 98.9545 76.2813 96.9148 74.8494 94.2443C73.4176 91.5739 72.7017 88.3409 72.7017 84.5455C72.7017 80.7386 73.4176 77.5 74.8494 74.8295C76.2813 72.1591 78.2301 70.125 80.696 68.7273C83.1619 67.3182 85.946 66.6136 89.0483 66.6136C92.1278 66.6136 94.9006 67.3182 97.3665 68.7273C99.8438 70.125 101.798 72.1591 103.23 74.8295C104.673 77.5 105.395 80.7386 105.395 84.5455ZM97.9119 84.5455C97.9119 82.0795 97.5426 80 96.804 78.3068C96.0767 76.6136 95.0483 75.3295 93.7188 74.4545C92.3892 73.5795 90.8324 73.142 89.0483 73.142C87.2642 73.142 85.7074 73.5795 84.3778 74.4545C83.0483 75.3295 82.0142 76.6136 81.2756 78.3068C80.5483 80 80.1847 82.0795 80.1847 84.5455C80.1847 87.0114 80.5483 89.0909 81.2756 90.7841C82.0142 92.4773 83.0483 93.7614 84.3778 94.6364C85.7074 95.5114 87.2642 95.9489 89.0483 95.9489C90.8324 95.9489 92.3892 95.5114 93.7188 94.6364C95.0483 93.7614 96.0767 92.4773 96.804 90.7841C97.5426 89.0909 97.9119 87.0114 97.9119 84.5455ZM110.862 102V67.0909H118.243V82.483H118.703L131.266 67.0909H140.112L127.158 82.7216L140.266 102H131.436L121.874 87.6477L118.243 92.0795V102H110.862ZM155.065 102V67.0909H178.588V73.1761H162.446V81.4943H177.378V87.5795H162.446V95.9148H178.656V102H155.065ZM191.376 67.0909L198.416 78.9886H198.689L205.763 67.0909H214.098L203.445 84.5455L214.337 102H205.848L198.689 90.0852H198.416L191.257 102H182.803L193.729 84.5455L183.007 67.0909H191.376ZM247.929 79.3125H240.463C240.327 78.3466 240.048 77.4886 239.628 76.7386C239.207 75.9773 238.668 75.3295 238.009 74.7955C237.349 74.2614 236.588 73.8523 235.724 73.5682C234.872 73.2841 233.946 73.142 232.946 73.142C231.139 73.142 229.565 73.5909 228.224 74.4886C226.884 75.375 225.844 76.6705 225.105 78.375C224.366 80.0682 223.997 82.125 223.997 84.5455C223.997 87.0341 224.366 89.125 225.105 90.8182C225.855 92.5114 226.901 93.7898 228.241 94.6534C229.582 95.517 231.134 95.9489 232.895 95.9489C233.884 95.9489 234.798 95.8182 235.639 95.5568C236.491 95.2955 237.247 94.9148 237.906 94.4148C238.565 93.9034 239.111 93.2841 239.543 92.5568C239.986 91.8295 240.293 91 240.463 90.0682L247.929 90.1023C247.736 91.7045 247.253 93.25 246.48 94.7386C245.719 96.2159 244.69 97.5398 243.395 98.7102C242.111 99.8693 240.577 100.79 238.793 101.472C237.02 102.142 235.014 102.477 232.776 102.477C229.662 102.477 226.878 101.773 224.423 100.364C221.98 98.9545 220.048 96.9148 218.628 94.2443C217.219 91.5739 216.514 88.3409 216.514 84.5455C216.514 80.7386 217.23 77.5 218.662 74.8295C220.094 72.1591 222.037 70.125 224.491 68.7273C226.946 67.3182 229.707 66.6136 232.776 66.6136C234.798 66.6136 236.673 66.8977 238.401 67.4659C240.139 68.0341 241.679 68.8636 243.02 69.9545C244.361 71.0341 245.452 72.358 246.293 73.9261C247.145 75.4943 247.69 77.2898 247.929 79.3125ZM253.222 102V67.0909H260.602V81.4943H275.585V67.0909H282.949V102H275.585V87.5795H260.602V102H253.222ZM295.051 102H287.142L299.193 67.0909H308.705L320.739 102H312.83L304.085 75.0682H303.812L295.051 102ZM294.557 88.2784H313.239V94.0398H294.557V88.2784ZM354.139 67.0909V102H347.764L332.577 80.0284H332.321V102H324.94V67.0909H331.418L346.486 89.0455H346.793V67.0909H354.139ZM383.385 78.375C383.146 77.5455 382.811 76.8125 382.379 76.1761C381.947 75.5284 381.419 74.983 380.794 74.5398C380.18 74.0852 379.476 73.7386 378.68 73.5C377.896 73.2614 377.027 73.142 376.072 73.142C374.288 73.142 372.72 73.5852 371.368 74.4716C370.027 75.358 368.982 76.6477 368.232 78.3409C367.482 80.0227 367.107 82.0795 367.107 84.5114C367.107 86.9432 367.476 89.0114 368.214 90.7159C368.953 92.4205 369.999 93.7216 371.351 94.6193C372.703 95.5057 374.3 95.9489 376.141 95.9489C377.811 95.9489 379.237 95.6534 380.419 95.0625C381.612 94.4602 382.521 93.6136 383.146 92.5227C383.783 91.4318 384.101 90.142 384.101 88.6534L385.601 88.875H376.601V83.3182H391.209V87.7159C391.209 90.7841 390.561 93.4205 389.266 95.625C387.97 97.8182 386.186 99.5114 383.913 100.705C381.641 101.886 379.038 102.477 376.107 102.477C372.834 102.477 369.959 101.756 367.482 100.312C365.004 98.858 363.072 96.7955 361.686 94.125C360.311 91.4432 359.624 88.2614 359.624 84.5795C359.624 81.75 360.033 79.2273 360.851 77.0114C361.68 74.7841 362.839 72.8977 364.328 71.3523C365.817 69.8068 367.55 68.6307 369.527 67.8239C371.504 67.017 373.646 66.6136 375.953 66.6136C377.93 66.6136 379.771 66.9034 381.476 67.483C383.18 68.0511 384.692 68.858 386.01 69.9034C387.339 70.9489 388.425 72.1932 389.266 73.6364C390.107 75.0682 390.646 76.6477 390.885 78.375H383.385ZM396.753 102V67.0909H420.276V73.1761H404.134V81.4943H419.065V87.5795H404.134V95.9148H420.344V102H396.753Z" fill="#FFFDFD"/>
<path d="M281.204 56.5816C281.344 57.6944 280.849 58.8408 279.829 59.7684C278.809 60.6961 277.346 61.3291 275.763 61.5282C274.18 61.7274 272.606 61.4763 271.388 60.8302C270.169 60.1842 269.406 59.196 269.266 58.0832C268.118 48.9548 263.145 40.5157 254.976 33.8332C246.807 27.1507 235.808 22.5248 223.371 20.5407C210.935 18.5565 197.618 19.3032 185.106 22.6862C172.594 26.0692 161.448 31.9366 153.077 39.5465L140.602 50.8884L173.942 46.6946C175.525 46.4955 177.099 46.7466 178.317 47.3926C179.536 48.0387 180.299 49.0268 180.439 50.1396C180.579 51.2524 180.084 52.3987 179.064 53.3264C178.043 54.2541 176.581 54.8871 174.998 55.0863L127.247 61.0927C127.202 61.0983 127.159 61.0996 127.114 61.1047C126.963 61.1214 126.811 61.1369 126.659 61.1456C126.554 61.1515 126.451 61.1509 126.347 61.153C126.256 61.1549 126.165 61.1591 126.074 61.158C125.963 61.1566 125.855 61.1492 125.746 61.1434C125.662 61.1389 125.577 61.1367 125.494 61.1297C125.39 61.1209 125.289 61.1069 125.187 61.094C125.099 61.0832 125.011 61.0742 124.924 61.0605C124.831 61.0456 124.742 61.0259 124.651 61.0079C124.557 60.9895 124.463 60.9728 124.371 60.9508C124.287 60.9307 124.207 60.9059 124.125 60.8831C124.03 60.8568 123.935 60.8324 123.842 60.8024C123.757 60.7748 123.677 60.7422 123.595 60.7117C123.51 60.6802 123.424 60.6513 123.341 60.6165C123.225 60.5676 123.115 60.5128 123.005 60.4579C122.961 60.4361 122.915 60.4178 122.871 60.3949C122.825 60.3704 122.786 60.3429 122.741 60.3176C122.639 60.2597 122.536 60.2021 122.44 60.1389C122.365 60.0894 122.298 60.0359 122.227 59.9836C122.168 59.9403 122.107 59.8986 122.051 59.8531C121.979 59.7948 121.915 59.7328 121.849 59.6717C121.802 59.6275 121.751 59.5849 121.706 59.5388C121.646 59.4777 121.593 59.4136 121.539 59.3502C121.495 59.2995 121.449 59.2502 121.408 59.1981C121.361 59.1364 121.32 59.0728 121.278 59.0095C121.239 58.9514 121.197 58.8948 121.162 58.8349C121.124 58.771 121.094 58.7051 121.061 58.6397C121.03 58.5781 120.996 58.5178 120.969 58.4546C120.937 58.3777 120.913 58.2993 120.887 58.2212C120.869 58.167 120.847 58.1146 120.832 58.0593C120.795 57.9227 120.767 57.7844 120.75 57.6451L116.528 24.0811C116.388 22.9683 116.882 21.822 117.903 20.8943C118.923 19.9666 120.386 19.3336 121.969 19.1345C123.552 18.9354 125.126 19.1864 126.344 19.8325C127.562 20.4786 128.326 21.4667 128.466 22.5795L131.414 46.0161L143.889 34.6742C153.781 25.6808 166.954 18.7467 181.741 14.7487C196.529 10.7507 212.266 9.8684 226.964 12.2133C241.662 14.5583 254.66 20.0251 264.315 27.9226C273.97 35.8201 279.847 45.7935 281.204 56.5816V56.5816Z" fill="#FFFDFD"/>
<path d="M116.465 111.142C116.348 110.026 116.867 108.891 117.907 107.985C118.946 107.078 120.422 106.476 122.009 106.31C123.596 106.145 125.164 106.429 126.368 107.1C127.573 107.772 128.315 108.775 128.432 109.891C129.388 119.041 134.183 127.583 142.21 134.435C150.237 141.288 161.136 146.143 173.529 148.388C185.921 150.633 199.25 150.166 211.831 147.046C224.411 143.926 235.678 138.294 244.206 130.861L256.917 119.783L223.496 123.277C221.909 123.443 220.341 123.159 219.136 122.487C217.932 121.816 217.19 120.812 217.073 119.696C216.956 118.581 217.475 117.445 218.515 116.539C219.554 115.633 221.03 115.031 222.617 114.865L270.483 109.861C270.528 109.857 270.571 109.856 270.616 109.852C270.768 109.839 270.92 109.826 271.072 109.821C271.177 109.817 271.28 109.82 271.384 109.82C271.475 109.82 271.566 109.818 271.657 109.821C271.768 109.824 271.876 109.834 271.985 109.842C272.069 109.848 272.153 109.852 272.236 109.861C272.34 109.872 272.441 109.888 272.542 109.903C272.63 109.916 272.718 109.927 272.805 109.942C272.897 109.959 272.986 109.981 273.077 110.001C273.17 110.021 273.264 110.04 273.356 110.064C273.439 110.085 273.518 110.112 273.6 110.136C273.694 110.165 273.789 110.191 273.881 110.223C273.965 110.252 274.044 110.287 274.126 110.319C274.21 110.352 274.296 110.383 274.378 110.419C274.493 110.471 274.602 110.528 274.711 110.585C274.754 110.608 274.8 110.627 274.843 110.651C274.888 110.676 274.927 110.705 274.971 110.731C275.072 110.791 275.174 110.851 275.268 110.916C275.342 110.967 275.409 111.022 275.478 111.075C275.536 111.12 275.597 111.163 275.652 111.21C275.722 111.27 275.785 111.333 275.849 111.395C275.896 111.441 275.946 111.484 275.99 111.531C276.049 111.594 276.1 111.659 276.153 111.723C276.196 111.775 276.241 111.825 276.281 111.878C276.327 111.941 276.366 112.005 276.407 112.069C276.445 112.128 276.486 112.186 276.52 112.246C276.556 112.311 276.585 112.378 276.616 112.444C276.646 112.506 276.678 112.567 276.704 112.631C276.734 112.708 276.757 112.787 276.781 112.866C276.798 112.92 276.819 112.973 276.833 113.029C276.867 113.166 276.892 113.305 276.906 113.445L280.423 147.09C280.54 148.205 280.021 149.341 278.982 150.247C277.942 151.153 276.466 151.755 274.88 151.921C273.293 152.087 271.724 151.803 270.52 151.131C269.315 150.46 268.573 149.456 268.457 148.341L266.001 124.847L253.29 135.925C243.211 144.709 229.896 151.365 215.028 155.052C200.16 158.739 184.408 159.291 169.762 156.638C155.116 153.985 142.236 148.247 132.749 140.149C123.262 132.05 117.595 121.956 116.465 111.142V111.142Z" fill="#FFFDFD"/>
</g>
<defs>
<filter id="filter0_d_2_48" x="0.0340881" y="10.9301" width="424.31" height="164.93" filterUnits="userSpaceOnUse" color-interpolation-filters="sRGB">
<feFlood flood-opacity="0" result="BackgroundImageFix"/>
<feColorMatrix in="SourceAlpha" type="matrix" values="0 0 0 0 0 0 0 0 0 0 0 0 0 0 0 0 0 0 127 0" result="hardAlpha"/>
<feOffset dy="4"/>
<feGaussianBlur stdDeviation="2"/>
<feComposite in2="hardAlpha" operator="out"/>
<feColorMatrix type="matrix" values="0 0 0 0 0 0 0 0 0 0 0 0 0 0 0 0 0 0 0.25 0"/>
<feBlend mode="normal" in2="BackgroundImageFix" result="effect1_dropShadow_2_48"/>
<feBlend mode="normal" in="SourceGraphic" in2="effect1_dropShadow_2_48" result="shape"/>
</filter>
</defs>
</svg>
